<svg xmlns="http://www.w3.org/2000/svg" viewBox="0 0 274 80" width="274" height="80"><defs><style>.cls-1{fill:#719e40;}.cls-2{fill:#6900e9;}.cls-3{fill:#fff;}.cls-4{fill:#ef3b2d;}</style></defs><title>Laravel Bridge slim</title><path class="cls-1" d="M158.47,57.32l.66-.89c.51-.58,1-.8,1.62-.29s6.17,5.66,13.59,5.66c6.68,0,12.34-4.48,12.34-9.85,0-6.54-5.36-9.48-14.25-12.49-8.53-3-14.18-6-14.18-14.47,0-5.51,4.41-13,15.87-13a24.09,24.09,0,0,1,12.63,3.75,1.05,1.05,0,0,1,.3,1.54,7.78,7.78,0,0,0-.59,1,1.06,1.06,0,0,1-1.62.37A21.46,21.46,0,0,0,174,15.14c-9,0-12.41,5.59-12.41,9.78,0,6.24,4.77,9,12.19,11.38,10.07,3.46,16.46,7,16.46,15.51,0,7.34-7.57,13.07-16,13.07a23.92,23.92,0,0,1-15.57-6C158.25,58.49,157.88,58.12,158.47,57.32Z"/><path class="cls-1" d="M198.73,13.67a1,1,0,0,1,1-.95H201a1,1,0,0,1,1,.95V63.19a.85.85,0,0,1-1,1h-1.47a.85.85,0,0,1-.81-1Z"/><path class="cls-1" d="M212.25,17.94a2.5,2.5,0,1,1,5,0,2.5,2.5,0,0,1-5,0Zm.88,17.77a1,1,0,0,1,1-1h1.33a1,1,0,0,1,1,1V63.19a.85.85,0,0,1-1,1h-1.47a.85.85,0,0,1-.81-1Z"/><path class="cls-1" d="M227.53,35.71a1,1,0,0,1,.95-1h.89a.79.79,0,0,1,.8.74l.37,3.15A12.83,12.83,0,0,1,240.68,34c4.48,0,7.79,1.91,9.62,5.36a14.9,14.9,0,0,1,11-5.36c8,0,11.46,5.21,11.46,13.44V63.19a1,1,0,0,1-1,1h-1.47a.86.86,0,0,1-.81-1V47.47c0-6.76-2.93-10.29-8.44-10.29a12.55,12.55,0,0,0-9.7,5,19.33,19.33,0,0,1,.66,5.29V63.19a1,1,0,0,1-1,1h-1.39a.87.87,0,0,1-.88-1V47.47c0-6.76-3-10.29-8.53-10.29a11.87,11.87,0,0,0-9.55,5.07V63.19a.85.85,0,0,1-.95,1h-1.47a.85.85,0,0,1-.81-1Z"/><circle class="cls-2" cx="114" cy="40" r="25"/><path class="cls-3" d="M127.36,32.33a18.67,18.67,0,0,1-1.55-5.44V26.5a1.69,1.69,0,1,0-3.37,0v.39a18.76,18.76,0,0,1-1.55,5.44c-1.56,3.28-3.88,5-6.89,5s-5.33-1.67-6.89-5a19.17,19.17,0,0,1-1.53-5.28,1.35,1.35,0,0,0,0-.35v-.2a1.69,1.69,0,1,0-3.37,0V27h0v.11c-.17,1.27-1.14,7.13-5.07,9.35V50.69h5.07V53.5a1.69,1.69,0,1,0,3.37,0V50.69h16.88V53.5a1.69,1.69,0,1,0,3.37,0V50.69h5.06V36.43A8.93,8.93,0,0,1,127.36,32.33Zm-25.17,15H100.5V38.17a11.51,11.51,0,0,0,1.69-1.84Zm5,0h-1.67v-11a11.77,11.77,0,0,0,1.67,1.83Zm5.08,0H110.6v-7.2a9.71,9.71,0,0,0,1.71.42Zm5,0h-1.66V40.53a10.05,10.05,0,0,0,1.66-.4Zm5.09,0h-1.71V38.18a12.34,12.34,0,0,0,1.71-1.87Zm5.06,0h-1.69v-11a11.59,11.59,0,0,0,1.69,1.85Z"/><path class="cls-4" d="M75.88,18.66s0-.08,0-.12,0-.13-.09-.21,0-.08-.08-.12l-.12-.13s-.08,0-.13-.08l-.12-.12h0L60.65,9.44a1.34,1.34,0,0,0-1.23,0L44.77,17.88h0l-.12.12s-.08,0-.12.08l-.13.13s0,.08-.08.12,0,.12-.08.21,0,.08,0,.12a.83.83,0,0,0,0,.33V35l-12.22,7V10.68a.93.93,0,0,0,0-.33s0-.08,0-.12-.05-.13-.09-.21,0-.08-.08-.12l-.12-.13s-.08,0-.13-.08l-.12-.12h0L16.67,1.13a1.34,1.34,0,0,0-1.23,0L.79,9.57h0l-.12.12s-.08,0-.12.08L.42,9.9s0,.08-.08.12,0,.12-.08.21,0,.08,0,.12a.83.83,0,0,0,0,.33V60.91A1.26,1.26,0,0,0,.79,62L30.13,78.85l.2.08s0,0,.09,0a.78.78,0,0,0,.32,0,.91.91,0,0,0,.33,0s0,0,.09,0,.16,0,.2-.08L60.7,62a1.21,1.21,0,0,0,.61-1.07v-16l14.07-8.11A1.22,1.22,0,0,0,76,35.69V19A1.1,1.1,0,0,1,75.88,18.66ZM30.7,59.51,18.53,52.6l12.79-7.36h0l14.07-8.11,12.22,7-9,5.1ZM58.8,28.12V42l-5.14-3L46.58,35V21.09l5.15,3ZM60,12l12.22,7L60,26,47.82,19ZM22.39,47.54l-5.14,3V19.85l7.08-4.07,5.14-3V43.47ZM16.06,3.64l12.22,7-12.22,7-12.22-7ZM2.6,12.82l5.15,3,7.07,4.07V52.64h0v.13a.24.24,0,0,0,0,.16h0s.05.08.05.12,0,.13.08.17h0s0,.08.08.12,0,.08.08.13h0s.08,0,.13.08.08.08.12.08h0l14,7.94V75.64L2.6,60.21V12.82ZM58.8,60.21,31.9,75.68V61.61L51.81,50.26l7-4ZM73.49,35l-12.22,7V28.16l7.08-4.07,5.14-3Z"/></svg>